<svg xmlns="http://www.w3.org/2000/svg"><symbol id="brachiosaurus" viewBox="0 0 256 256"><path d="M60.8 165.1a30 30 0 0 0-7.4.8c0 .3.3.6.8.9a6.7 6.7 0 0 0 1.9 1 14.5 14.5 0 0 0 2.5 1l2.7.8 2.2.5 1.4.2H67l2.4-.4a8.5 8.5 0 0 0 2.2-.9 3.9 3.9 0 0 0 1.7-1.4 33.9 33.9 0 0 0-6.1-2.1 34.7 34.7 0 0 0-6.4-.4z"/><path d="M126.5 6.7a121.2 121.2 0 1 0 121.1 121.2A121.2 121.2 0 0 0 126.5 6.7zm79 66.9v.3a7.8 7.8 0 0 1-.1 1.3l-.3 2a11.8 11.8 0 0 1-.4 2 12.3 12.3 0 0 1-.2 1.3 8.9 8.9 0 0 0-.8 1.7 10.7 10.7 0 0 0-.7 1.9 18 18 0 0 1-.5 1.9 13.4 13.4 0 0 1-.7 1.8 15.7 15.7 0 0 1-1.6 2.9 16.8 16.8 0 0 0-1.5 3l-19 26.4-.3.5c0 .1-.1.2-.2.3l-.3.2-.4.5-1.6 2.2a31.5 31.5 0 0 0-1.9 2.7l-2.1 3.1a25.9 25.9 0 0 0-1.9 3.1 16.8 16.8 0 0 0-1.3 2.8 5.2 5.2 0 0 0-.5 2.2c0 .3-.3.5-.2.7s.1.4.1.7c-.1 0-.2.2-.2.4a.5.5 0 0 0 .2.4v9.7a1.6 1.6 0 0 1-.2.9l-.3 1.1a6.7 6.7 0 0 0-.6 1.2c-.1.4-.4.7-.4 1v1.6c0 .1.1.2-.1.4l-.3.8c-.2.3-.6.5-.7.8l-.5.3v.4c0 .1.6.2.7.4s.9.3.9.4v.6a2.1 2.1 0 0 0 0 .8v1.3a20.2 20.2 0 0 1-.6 3.4c-.2 1.1-.6 2.2-.8 3.3s-.4 2.2-.6 3.4a18.4 18.4 0 0 0-.3 3.3q0 3 .3 6a38.3 38.3 0 0 0 1 5.9 36.2 36.2 0 0 0 2 5.5 26.3 26.3 0 0 0 3.3 4.9 3.6 3.6 0 0 1-1.2.8l-1.6.7-1.6.4h-1.9l-.9-.2-1.2-.3-.9-.2h-.7l-.7-.3c-.3-.1-.4-.3-.6-.5a.7.7 0 0 1-.3-.6c.1-1.3.1-2.6.1-3.9l-.3-4.1c-.1-1.3-.3-2.7-.5-4.1s-.3-2.6-.5-3.8l-.2-.6c-.1-.3-.1-.5-.2-.6s.1-2.2.1-3.5 0-2.5-.1-3.8a23.2 23.2 0 0 0-.6-3.8 12 12 0 0 0-1.3-3.3 3.4 3.4 0 0 0-1.4 1.7 19.8 19.8 0 0 0-.8 2.6c-.2 1-.2 1.9-.4 2.8s-.9 1.6-.9 2.2v1.5a14.7 14.7 0 0 1 0 2.1v3.5c0 2.7-.2 5.4-.1 7.9a68.3 68.3 0 0 0 .6 7.8c0 .1.1.2.4.4l.8.5.7.7a.9.9 0 0 1 .3.6c0 .2-.2.5-.7.7l-1.8.9-1.9.8-1.2.4h-.2l-4.5-2.5a.5.5 0 0 1-.3-.5v-.5a13.6 13.6 0 0 1 .1-2.9 26.2 26.2 0 0 0 .1-2.9c0-1.2-.2-2.4-.3-3.6l-.6-3.5c-.2-1.2-.4-2.4-.5-3.6a22.2 22.2 0 0 1-.3-3.7c0-1.2 0-2.2.1-3.2a20.2 20.2 0 0 1 .4-2.6 25.6 25.6 0 0 1 .5-2.7c.1-.9.4-1.9.6-3.1a1.8 1.8 0 0 0-.1-.6 5.6 5.6 0 0 0-.1-.7 5.5 5.5 0 0 0-1.8.2l-1.7.5-1.9.6-1.8.4-1.3.2-1 .2c-.3 0-.6-.2-.9-.1l-1-.2h-6.8a41 41 0 0 0-5-.2h-2.3a4 4 0 0 0-2.3.8c.1 1.7.1 3.3.1 5s-.1 3.2-.2 4.8l-.3 4.9c0 1.6-.1 3.3-.1 4.9v4.9c0 .5.6 1.1 1.1 1.6l1.3 1.6a16.3 16.3 0 0 1 1.1 1.7 2.6 2.6 0 0 1 .5 1.7v.4a8.1 8.1 0 0 1-3.8.3c0 .5 0 .7-.3.8h-2.6l-2.1-.2a3.8 3.8 0 0 1-1.7-.8 2.2 2.2 0 0 1-.8-1.8 5 5 0 0 1 .2-1.2 6.1 6.1 0 0 1 .3-1.3l.3-1.2a5.7 5.7 0 0 0 .1-1.3 22.2 22.2 0 0 0-.3-3.7 34.3 34.3 0 0 0-.6-3.4c-.3-1.2-.5-2.5-.8-3.7a27.3 27.3 0 0 1-.7-3.7h-.4c-.2 0-.3.7-.5.8a2.5 2.5 0 0 1-.4.7l-.3.5-1.4 2.2-1.4 2.1a24 24 0 0 0-1.1 2.3 10.9 10.9 0 0 0-.4 2.6 2.8 2.8 0 0 0 .4 1.5c.2.6.4 1 .6 1.5l.7 1.1.4.5a.8.8 0 0 1-.4.7l-1 .5-1.3.2h-4.1a1.5 1.5 0 0 1-1-.4 1.9 1.9 0 0 1-.7-.8 13.1 13.1 0 0 1-.5-1.5c-.2-.6-.3-1.1-.5-1.6a4.1 4.1 0 0 1-.3-1.6 4.3 4.3 0 0 1 .4-1.4l.9-1.5 1-1.5a5 5 0 0 0 .8-1.4l2.4-5.6c.7-1.9 1.5-3.7 2.3-5.6a45708956252724.5 45708956252724.5 0 0 1 1-1.4l.4-.7a2.2 2.2 0 0 0 .1-.8q0-.6-.3-.6h-1.2l-8.6 2.3a2.3 2.3 0 0 1-1.2.5l-1.7.4-1.5.5a1.4 1.4 0 0 0-.7 1.1 1.1 1.1 0 0 0 .3.8l.6.6.8.6a1.3 1.3 0 0 1 .7.6l-.4.4a3.6 3.6 0 0 0-1.2-.8l-1.3-.8a4.7 4.7 0 0 0-1.5-.6 3.2 3.2 0 0 0-1.4-.2 11.2 11.2 0 0 0-3.6.5l-3.8 1-3.9 1.3a18.3 18.3 0 0 1-4 .5 16 16 0 0 1-3.3-.4l-4.7-1-5.1-1.7a36.1 36.1 0 0 1-4.8-2.2 13.7 13.7 0 0 1-3.5-2.5 4.2 4.2 0 0 1-1.4-2.8 4.6 4.6 0 0 1 1.1-3.2 6.1 6.1 0 0 1 2.6-1.5 17.7 17.7 0 0 1 3.3-.2c1.2 0 2.3.4 3.2.4h3.8c.2 0 .6-.4 1.2-.3a21.5 21.5 0 0 1 2.3.2 19.7 19.7 0 0 1 2.4.3l1.9.2 1.8.5 1.7.8 1.8.8a5.8 5.8 0 0 0 1.9.3 9.8 9.8 0 0 0 3.8-1 28.4 28.4 0 0 0 3.9-2.5 26.9 26.9 0 0 0 3.7-3l3.1-2.5a9.4 9.4 0 0 1 1.8-1.2l1.8-1.1a8.3 8.3 0 0 0 1.6-1.2 7.3 7.3 0 0 0 1.4-1.6 26.7 26.7 0 0 0 2.5-4.3 29.6 29.6 0 0 1 2.6-4.2l1.3-1.3 1.4-.9 1.6-.8 1.5-.9c1.2-.8 2.4-1.6 3.5-2.5l3.2-2.8 3.3-2.9 3.2-2.7a33.5 33.5 0 0 1 3.6-2.1l3.8-1.8 2.4-1.2 2.3-1.2a11.2 11.2 0 0 1 2.5-1.1 7.2 7.2 0 0 1 2.5-.7l21.4-3.2a10.4 10.4 0 0 0 3.3-1 22 22 0 0 0 3.2-2.1 38.4 38.4 0 0 0 3-2.8 41.2 41.2 0 0 0 2.8-3.1l2.6-3a32 32 0 0 1 2.2-2.7l7.3-8.6.3-.2c.2-.2.4-.3.5-.5l.5-.5.3-.3 1.9-3.1.3-.2.3-.2.4-.2.2-.2.4-.4c.2-.2.3-.3.3-.4a11.1 11.1 0 0 0 1.2-1.6 12.7 12.7 0 0 0 1.3-1.9l1.3-1.8a9.5 9.5 0 0 0 .9-1.7 10.8 10.8 0 0 0 .8-1.9 15.9 15.9 0 0 0 .7-2c.2-.7.5-1.4.7-2.1s1-1.4 1-2.1v-5.8a5 5 0 0 0-1.1-3 11.8 11.8 0 0 0-2.5-2.5 12.3 12.3 0 0 0-3.2-1.7 8.9 8.9 0 0 0-3-.6 25.3 25.3 0 0 0-5.6.6 12.7 12.7 0 0 0-4.9 2.5l-1.3 1.4-1.6 1.8c-.5.6-1.1 1.2-1.6 1.9L171 69l-1.7 1.3a4.1 4.1 0 0 1-1.7.5 1.6 1.6 0 0 1-1.1-.5 1.4 1.4 0 0 1-.5-1.1v-.4a1 1 0 0 1 .1-.4c0-.2.1-.5.1-.8s.1-.5.2-.7v-.4a3.9 3.9 0 0 0-.2-1.6 5.2 5.2 0 0 0-.6-1.3l-.5-1.2a2.1 2.1 0 0 1-.3-1.2c.4 0 .7 0 .8-.2l.5-.6a2.5 2.5 0 0 1 .4-.7c.1-.3.4-.4.7-.6h2.7c.5 0 .8-.1.9-.4l.7-.6h.4l.2.4c.1.2.2.3.2.4s.2-.3.4-.4l.6-.3 1-.6 1.3-.8 1.3-.8 1.1-.6.5-.4 2-1.2 1.7-.6 1.8-.2h6.2l1.4.5 1.4.3 1.5.3a4.4 4.4 0 0 1 1.5.5 12.8 12.8 0 0 1 4.3 2.8 16.6 16.6 0 0 1 3.1 4 19.4 19.4 0 0 1 1.6 4.8 23.5 23.5 0 0 1 .5 5.2v2.3z"/></symbol><symbol id="velociraptor" viewBox="0 0 256 256"><path d="M130.2 3A122.8 122.8 0 1 0 253 125.8 122.8 122.8 0 0 0 130.2 3zm106.2 112h-7.1c-3 0-5.9-.2-8.8-.4l-8.8-1-8.8-.9a87 87 0 0 0-8.9-.4 139 139 0 0 0-15.7.9 71.1 71.1 0 0 0-15.3 3.6l-29.5 10.6a2.7 2.7 0 0 0-1.1 1.5 21.3 21.3 0 0 0-.8 2.7l-.6 2.7a7 7 0 0 1-.6 1.9 2.7 2.7 0 0 0 1.3 1.3 13.3 13.3 0 0 0 2.4 1.1l2.7 1.2a11.5 11.5 0 0 1 2.7 1.4 7 7 0 0 1 2 1.8 3.1 3.1 0 0 1 .8 2.3 1.6 1.6 0 0 1-.4 1.2l-1.2.9-1.6.7a6.9 6.9 0 0 0-1.5.7 6.3 6.3 0 0 0-1.2 1 2.5 2.5 0 0 0-.5 1.5 3.5 3.5 0 0 0 .8 2.4 7.7 7.7 0 0 0 1.9 1.6l2.2 1.3a6.5 6.5 0 0 1 2.1 1.6 19.4 19.4 0 0 1 2 3.3 25.3 25.3 0 0 1 1.2 3.6c.3 1.2.6 2.4.8 3.7s.1 2.6.2 3.8l1.3 1.3v6.9h.8l1 .2.9.2.6.2a3.8 3.8 0 0 0 .1.8 4.4 4.4 0 0 1-.2 1 2.7 2.7 0 0 1-.3 1.2l-.6.9c-.2.3-.5.3-.9.3h-5c-.2 0-.5-.5-.9-.8l-1.5-.9-1.5-.7c-.5-.3-.8-.8-1.1-.8h-5.9a5 5 0 0 1 .6-2.9 3.9 3.9 0 0 1 1.6-1.5 6.6 6.6 0 0 1 2-.6l2.1-.3 1.5-.6a1.4 1.4 0 0 0 .7-1.4v-.3a.4.4 0 0 1-.1-.3l-.8-1.7-1.2-2.3-1.5-2.4a6.5 6.5 0 0 0-1.5-1.7 3.6 3.6 0 0 0-1.3-.8l-1.8-.9-1.6-1.1c-.6-.3-.9-.6-1-1s-.6-1.8-.9-2.8a17 17 0 0 0-1-3.2 8.5 8.5 0 0 0-1.7-2.5 4.1 4.1 0 0 0-2.8-1 23.2 23.2 0 0 0-5.8.8 21.8 21.8 0 0 0-5.5 2.2 20.4 20.4 0 0 0-4.8 3.3 19.7 19.7 0 0 0-3.8 4.4c-.1.2-.2.2-.4.2h-.1c-.1 0-.1-.1-.1-.2s-.2-.1-.2-.3-.1-.4-.2-.6a1.4 1.4 0 0 0-.2-.6.4.4 0 0 0-.1-.3h-.3a1.4 1.4 0 0 0-1 .5 4.4 4.4 0 0 0-.8 1.1l-.8 1.3-.9 1a11.6 11.6 0 0 1-.6-1.6c0-.5-.1-1-.1-1.6a12.6 12.6 0 0 1 .4-2.8l.9-2.7c.3-.9.6-1.5.9-2.5a23.2 23.2 0 0 0 .3-2.7h-4.6c0-1.6.2-1.7.6-2.3a7.1 7.1 0 0 1 1.5-1.5 13.3 13.3 0 0 1 2.1-.9l2-.2a13.7 13.7 0 0 1 2.9.2l2.9.4 2.8.5h5a2.3 2.3 0 0 0-1.6-1.3l-2.5-.5-2.6-.2c-.8 0-1.5.2-2.1-.2l-3.7-2.1h-.3a16 16 0 0 0-3.1 0 15.1 15.1 0 0 1-3 .2 6.5 6.5 0 0 1-2.9-.7l-2.6-1.3a14.9 14.9 0 0 0-2.5-1.3 4.8 4.8 0 0 0-2.8-.6v5.8h1.6a2.5 2.5 0 0 0 .9-.4l.9-.5c.3-.2.3-.4.8-.6h.6v2.6l2-.6c0 .1.2.2.2.5s.1.3.1.4a5.3 5.3 0 0 1-1.3 3.8 21.2 21.2 0 0 1-3.1 2.8 20.1 20.1 0 0 0-4.5-1.2l-4.6-.7v-7.5l-1.7.5-1.9 1a16 16 0 0 0-1.9 1.1c-.4.4-.9.8-.9 1.2v6.6a16.5 16.5 0 0 0 2.9-.2l1.7-.6 1.2-.6a2.7 2.7 0 0 1 1.2-.3h.4c0 .1.1.3.2.7l.5 1.2.3 1.3a1.8 1.8 0 0 1 .2.9 3.9 3.9 0 0 1-.4 1.8 5.8 5.8 0 0 1-2.5 3.1 4.1 4.1 0 0 1-1.8.5h-1l-2.8-.5a22.9 22.9 0 0 1-3.6-.7 12.5 12.5 0 0 1-3.1-1.2 2.4 2.4 0 0 1-1.4-2v-11.5l.9-.8 1.8-1.5 2.3-2.1A27.3 27.3 0 0 0 74 140a18.4 18.4 0 0 0 1.7-2.5 5 5 0 0 0 .7-2.5 4 4 0 0 0-1.1-2.7 13.5 13.5 0 0 0-2.7-2 25.8 25.8 0 0 0-3.1-1.3l-2.5-.9-1.3-8.8a13.8 13.8 0 0 0-.6-2.6 10.8 10.8 0 0 0-1-2.7 8.5 8.5 0 0 0-1.7-2 3.9 3.9 0 0 0-2.6-.9 12.3 12.3 0 0 0-3.5.5 16.6 16.6 0 0 0-3.1 1.4l-1.6 1-2.5 1.5-2.8 1.7-2.9 1.6-2.4 1.6c-.8.5-1.3 1.1-1.6 1.1h-1l-1.7-.2-2-.4c-.6-.1-.8-.4-1.3-.7s-.3-.8-.3-1.3v-1.8c0-.6-.2-.9 0-.9h1.5v-.4c.1-.2.1-.5.2-.8a2.2 2.2 0 0 0 .1-.8 1.1 1.1 0 0 0 .1-.5l-.8-.8-.9-.5a1.2 1.2 0 0 1-.6-.6 1.7 1.7 0 0 1-.3-1.2 5.2 5.2 0 0 1 .2-1.1 4.1 4.1 0 0 1 .7-1.1c.3-.4.2-.7.6-.9l.8-.3v.7c0 .5.4 1 .5 1.5a1.4 1.4 0 0 0 1.2.7 1.6 1.6 0 0 0 1-.5 5.2 5.2 0 0 0 1-1.1c.2-.4.4-1.1.6-1.6s.2.3.2-1.3H27.4a1.5 1.5 0 0 1-.8-.5 3.3 3.3 0 0 1-1-.6 3.6 3.6 0 0 1-.9-.8 1.3 1.3 0 0 1-.4-1 4.5 4.5 0 0 1 1-3 6.8 6.8 0 0 1 2.6-1.8l3-1a15.8 15.8 0 0 0 2.8-.8l2.1-.9 3.3-1.5 3.2-1.5a8.8 8.8 0 0 1 2.1-1h13.2a7.8 7.8 0 0 1 3.7.9 14.2 14.2 0 0 1 3 2.5 19.1 19.1 0 0 1 2.4 3.2c.8 1.1 1.5 2.2 2.3 3.2a12.8 12.8 0 0 0 2.2 2.4 3.3 3.3 0 0 0 2.4 1 .7.7 0 0 0 .7-.4.9.9 0 0 1 .8-.4 4 4 0 0 1 1.5.3l1.5.7 1.4.7a4 4 0 0 0 1.5.3l4-.2 4-.4 3.9-.5 4-.2a51.8 51.8 0 0 1 7 .4 30.3 30.3 0 0 1 7 1.5 49.4 49.4 0 0 1 4.9 1.9l4.9 2.1a50.8 50.8 0 0 0 5.1 1.7 18.1 18.1 0 0 0 5.2.7h2.5L146 110c4.1-.9 8.2-1.6 12.3-2.3s8.3-1.1 12.5-1.5 8.4-.5 12.7-.5h8.5a48.4 48.4 0 0 1 4.9.9l35.2 7h11.3c-.8 0-1.8 1-3.1 1.3a12.5 12.5 0 0 1-3.9.1z"/></symbol><symbol id="micropachycephalosaurus" viewBox="0 0 256 256"><path d="M128.1 6.2a122 122 0 1 0 121.9 122 122 122 0 0 0-121.9-122zm91.4 72.3a3.7 3.7 0 0 1-1.5.4h-3.5a24.5 24.5 0 0 0-5 1.2 12.7 12.7 0 0 0-3.5 1.5 8.3 8.3 0 0 0-2.4 2.1 11 11 0 0 0-1.7 2.8 26.1 26.1 0 0 0-1.4 3.7c-.5 1.4-1 3-1.6 4.9l-1.2 3.3-1.2 3c-.4 1-.9 2-1.4 3a23.8 23.8 0 0 1-1.7 3.1 37.3 37.3 0 0 1-2.5 3.9L188 115l-2.9 3.4-3 3.6a12.6 12.6 0 0 0-1.3 2.6 18.6 18.6 0 0 1-1 2.5 11.3 11.3 0 0 1-1.2 2.1 7 7 0 0 1-2.4 1.5l-1.3.5-2 .7-1.9.6-1.3.4a2.5 2.5 0 0 1 .1 1.9 1.8 1.8 0 0 1-.8.9l-1.2.6a1.4 1.4 0 0 0-.8.9l-2.2 6.4a2.5 2.5 0 0 1-1 1.5 4.5 4.5 0 0 1-1.7.8 11.1 11.1 0 0 1-1.9.2 9.7 9.7 0 0 1-1.8-.1h-.8a4 4 0 0 1-1.1 0 .8.8 0 0 1-.4-.8c0-.2.1-.2.1-.4l.3-.2c0-.1.1-.2.2-.3s.1-.2.1-.4c-.1 0-.1-.1-.1-.2l-3.2 1.6-3.3 2-3.2 2.1a33.7 33.7 0 0 1-3.2 1.9l-.8.4-1.1.6-1 .7a1.3 1.3 0 0 0-.4 1v.6l1.8 1.5c.5.6 1.2 1.1 1.8 1.7l2 1.5a8.2 8.2 0 0 0 2 1.2l1.7.7 1.9.5 1.8.6a5.1 5.1 0 0 1 1.6.9 8 8 0 0 1 1.3 1.3l1.1 1.5 1 1.4 1.5 1.2 1.6.6 2 .6a5.9 5.9 0 0 1 1.7 1 1.9 1.9 0 0 1 .7 1.6v.5l-5.4 1.1a2.3 2.3 0 0 0-1 .4l-1.2.2h-.5a2.7 2.7 0 0 0-1.1-.6l-1.7-1-1.6-1-1-.7-.2-.2-.3-.5-.3-.5-.2-.4-2.2-4.4-1.1-.4-1.7-.7-2.1-.9-2-.9-1.8-.8-1-.6-2.7-1.5a16.4 16.4 0 0 1-2.5-2.1 9.2 9.2 0 0 1-1.9-2.5 7.1 7.1 0 0 1-1-3l-.6.2-.6.3-.8.6-1.6 1.2-2.1 1.3-2 1.3-1.7 1-.9.6-5.7 3.3a22 22 0 0 0-4.4 3.3 18.8 18.8 0 0 0-3.5 4.3c-.8 1.6-.6 3.7-2.2 6.3v.6c-.1.2 0 .4 0 .5v.4a10 10 0 0 0 1.1 4.3 8.5 8.5 0 0 0 2 2.5 7.5 7.5 0 0 0 2.5 1.3 14.5 14.5 0 0 1 2.5 1 5.6 5.6 0 0 1 1.9.9 4.4 4.4 0 0 1 .7 1.9h-12.8l-.2-.4-.4-.2h-.4l-.6-.3a2.6 2.6 0 0 1-1.2-1.5 10.8 10.8 0 0 1-.5-2.1c0-.7.2-1.4.2-2.2a16.2 16.2 0 0 0 .3-2v-1.4a5.6 5.6 0 0 1 .2-1.6 19.8 19.8 0 0 0 .6-2.6 28.2 28.2 0 0 0 .7-3.1c.3-1 .6-2 .8-3a14.9 14.9 0 0 0 .6-2.5c.2-.8.4-1.4.5-1.7a5.9 5.9 0 0 1 .6-2l.9-1.8a13.3 13.3 0 0 0 4.4-2.5 22.7 22.7 0 0 0 3.1-3.1l2.8-3.3a16 16 0 0 1 3.3-3l1.3-.6 2-.8 2.2-.9 2.1-1.1a6.4 6.4 0 0 0 1.5-1.3 2 2 0 0 0 .6-1.5v-1.2a1.7 1.7 0 0 0-.6-1.2l-.7-.3-1.2-.5-1.1-.5-.8-.3-1.9-1.2-2.6-1.8a15.8 15.8 0 0 0-2.4-1.5 3.1 3.1 0 0 0-1.7-.6H91.2c-5.5.2-11.2.2-16.9.2s-8.4-.1-12.4-.3a117 117 0 0 1-11.9-1.2 91.8 91.8 0 0 1-11.5-2.8 69 69 0 0 1-11.3-4.9l-1.4-.7-1.5-.9a4.9 4.9 0 0 1-1.2-1.3 2.1 2.1 0 0 1-.5-1.5 5.8 5.8 0 0 1 2 .4l2.3.9 2.1.9 1.4.6a47.2 47.2 0 0 0 4.5 1.6l4.8 1.4 5 1 4.6.3h25.5l2.4-.4 3.3-.5 3.4-.5 3.3-.6 2.6-.6 6.6-1.3c2.4-.4 4.7-.9 7.1-1.5l6.9-2a53.5 53.5 0 0 0 6.4-2.7l3.7-1.7 3.6-1.6c1.3-.4 2.5-.9 3.8-1.2a25.9 25.9 0 0 1 4-.9h2.7l1.7-.2 1-.2 1.8-.3 3.2-.7a27.4 27.4 0 0 0 3.9-.9l3.9-.8c1.2-.3 2.3-.9 3.2-1.1s1.5-.7 1.8-.7h6.3c2.6 0 5.1.5 7.6.7s5 .5 7.5.5a10.7 10.7 0 0 0 4.9-1.2 19.5 19.5 0 0 0 4.3-3.4 34.9 34.9 0 0 0 3.7-4.7 60.5 60.5 0 0 0 3.2-5.5c.9-1.8 1.7-3.6 2.4-5.3s1.3-3.3 1.7-4.6.8-2.3 1.1-3.4l.9-3 1.2-2.5a7.7 7.7 0 0 1 1.7-1.9 8.7 8.7 0 0 1 2.5-1.5 12 12 0 0 1 3.7-.8h2.9c.7 1.6 1.7.9 2.9 1.3l3.4 1.4a15 15 0 0 1 2.8 1.8 2.6 2.6 0 0 1 1.2 2.1 1.8 1.8 0 0 1-.4 1.3 2.1 2.1 0 0 1-1.1.5z"/></symbol></svg>