<svg xmlns="http://www.w3.org/2000/svg" width="256" height="256" viewBox="0 0 256 256"><path d="M128.1 6.2a122 122 0 1 0 121.9 122 122 122 0 0 0-121.9-122zm91.4 72.3a3.7 3.7 0 0 1-1.5.4h-3.5a24.5 24.5 0 0 0-5 1.2 12.7 12.7 0 0 0-3.5 1.5 8.3 8.3 0 0 0-2.4 2.1 11 11 0 0 0-1.7 2.8 26.1 26.1 0 0 0-1.4 3.7c-.5 1.4-1 3-1.6 4.9l-1.2 3.3-1.2 3c-.4 1-.9 2-1.4 3a23.8 23.8 0 0 1-1.7 3.1 37.3 37.3 0 0 1-2.5 3.9L188 115l-2.9 3.4-3 3.6a12.6 12.6 0 0 0-1.3 2.6 18.6 18.6 0 0 1-1 2.5 11.3 11.3 0 0 1-1.2 2.1 7 7 0 0 1-2.4 1.5l-1.3.5-2 .7-1.9.6-1.3.4a2.5 2.5 0 0 1 .1 1.9 1.8 1.8 0 0 1-.8.9l-1.2.6a1.4 1.4 0 0 0-.8.9l-2.2 6.4a2.5 2.5 0 0 1-1 1.5 4.5 4.5 0 0 1-1.7.8 11.1 11.1 0 0 1-1.9.2 9.7 9.7 0 0 1-1.8-.1h-.8a4 4 0 0 1-1.1 0 .8.8 0 0 1-.4-.8c0-.2.1-.2.1-.4l.3-.2c0-.1.1-.2.2-.3s.1-.2.1-.4c-.1 0-.1-.1-.1-.2l-3.2 1.6-3.3 2-3.2 2.1a33.7 33.7 0 0 1-3.2 1.9l-.8.4-1.1.6-1 .7a1.3 1.3 0 0 0-.4 1v.6l1.8 1.5c.5.6 1.2 1.1 1.8 1.7l2 1.5a8.2 8.2 0 0 0 2 1.2l1.7.7 1.9.5 1.8.6a5.1 5.1 0 0 1 1.6.9 8 8 0 0 1 1.3 1.3l1.1 1.5 1 1.4 1.5 1.2 1.6.6 2 .6a5.9 5.9 0 0 1 1.7 1 1.9 1.9 0 0 1 .7 1.6v.5l-5.4 1.1a2.3 2.3 0 0 0-1 .4l-1.2.2h-.5a2.7 2.7 0 0 0-1.1-.6l-1.7-1-1.6-1-1-.7-.2-.2-.3-.5-.3-.5-.2-.4-2.2-4.4-1.1-.4-1.7-.7-2.1-.9-2-.9-1.8-.8-1-.6-2.7-1.5a16.4 16.4 0 0 1-2.5-2.1 9.2 9.2 0 0 1-1.9-2.5 7.1 7.1 0 0 1-1-3l-.6.2-.6.3-.8.6-1.6 1.2-2.1 1.3-2 1.3-1.7 1-.9.6-5.7 3.3a22 22 0 0 0-4.4 3.3 18.8 18.8 0 0 0-3.5 4.3c-.8 1.6-.6 3.7-2.2 6.3v.6c-.1.2 0 .4 0 .5v.4a10 10 0 0 0 1.1 4.3 8.5 8.5 0 0 0 2 2.5 7.5 7.5 0 0 0 2.5 1.3 14.5 14.5 0 0 1 2.5 1 5.6 5.6 0 0 1 1.9.9 4.4 4.4 0 0 1 .7 1.9h-12.8l-.2-.4-.4-.2h-.4l-.6-.3a2.6 2.6 0 0 1-1.2-1.5 10.8 10.8 0 0 1-.5-2.1c0-.7.2-1.4.2-2.2a16.2 16.2 0 0 0 .3-2v-1.4a5.6 5.6 0 0 1 .2-1.6 19.8 19.8 0 0 0 .6-2.6 28.2 28.2 0 0 0 .7-3.1c.3-1 .6-2 .8-3a14.9 14.9 0 0 0 .6-2.5c.2-.8.4-1.4.5-1.7a5.9 5.9 0 0 1 .6-2l.9-1.8a13.3 13.3 0 0 0 4.4-2.5 22.7 22.7 0 0 0 3.1-3.1l2.8-3.3a16 16 0 0 1 3.3-3l1.3-.6 2-.8 2.2-.9 2.1-1.1a6.4 6.4 0 0 0 1.5-1.3 2 2 0 0 0 .6-1.5v-1.2a1.7 1.7 0 0 0-.6-1.2l-.7-.3-1.2-.5-1.1-.5-.8-.3-1.9-1.2-2.6-1.8a15.8 15.8 0 0 0-2.4-1.5 3.1 3.1 0 0 0-1.7-.6H91.2c-5.5.2-11.2.2-16.9.2s-8.4-.1-12.4-.3a117 117 0 0 1-11.9-1.2 91.8 91.8 0 0 1-11.5-2.8 69 69 0 0 1-11.3-4.9l-1.4-.7-1.5-.9a4.9 4.9 0 0 1-1.2-1.3 2.1 2.1 0 0 1-.5-1.5 5.8 5.8 0 0 1 2 .4l2.3.9 2.1.9 1.4.6a47.2 47.2 0 0 0 4.5 1.6l4.8 1.4 5 1 4.6.3h25.5l2.4-.4 3.3-.5 3.4-.5 3.3-.6 2.6-.6 6.6-1.3c2.4-.4 4.7-.9 7.1-1.5l6.9-2a53.5 53.5 0 0 0 6.4-2.7l3.7-1.7 3.6-1.6c1.3-.4 2.5-.9 3.8-1.2a25.9 25.9 0 0 1 4-.9h2.7l1.7-.2 1-.2 1.8-.3 3.2-.7a27.4 27.4 0 0 0 3.9-.9l3.9-.8c1.2-.3 2.3-.9 3.2-1.1s1.5-.7 1.8-.7h6.3c2.6 0 5.1.5 7.6.7s5 .5 7.5.5a10.7 10.7 0 0 0 4.9-1.2 19.5 19.5 0 0 0 4.3-3.4 34.9 34.9 0 0 0 3.7-4.7 60.5 60.5 0 0 0 3.2-5.5c.9-1.8 1.7-3.6 2.4-5.3s1.3-3.3 1.7-4.6.8-2.3 1.1-3.4l.9-3 1.2-2.5a7.7 7.7 0 0 1 1.7-1.9 8.7 8.7 0 0 1 2.5-1.5 12 12 0 0 1 3.7-.8h2.9c.7 1.6 1.7.9 2.9 1.3l3.4 1.4a15 15 0 0 1 2.8 1.8 2.6 2.6 0 0 1 1.2 2.1 1.8 1.8 0 0 1-.4 1.3 2.1 2.1 0 0 1-1.1.5z"/></svg>