<svg xmlns="http://www.w3.org/2000/svg" width="256" height="256" viewBox="0 0 256 256"><path d="M130.2 3A122.8 122.8 0 1 0 253 125.8 122.8 122.8 0 0 0 130.2 3zm106.2 112h-7.1c-3 0-5.9-.2-8.8-.4l-8.8-1-8.8-.9a87 87 0 0 0-8.9-.4 139 139 0 0 0-15.7.9 71.1 71.1 0 0 0-15.3 3.6l-29.5 10.6a2.7 2.7 0 0 0-1.1 1.5 21.3 21.3 0 0 0-.8 2.7l-.6 2.7a7 7 0 0 1-.6 1.9 2.7 2.7 0 0 0 1.3 1.3 13.3 13.3 0 0 0 2.4 1.1l2.7 1.2a11.5 11.5 0 0 1 2.7 1.4 7 7 0 0 1 2 1.8 3.1 3.1 0 0 1 .8 2.3 1.6 1.6 0 0 1-.4 1.2l-1.2.9-1.6.7a6.9 6.9 0 0 0-1.5.7 6.3 6.3 0 0 0-1.2 1 2.5 2.5 0 0 0-.5 1.5 3.5 3.5 0 0 0 .8 2.4 7.7 7.7 0 0 0 1.9 1.6l2.2 1.3a6.5 6.5 0 0 1 2.1 1.6 19.4 19.4 0 0 1 2 3.3 25.3 25.3 0 0 1 1.2 3.6c.3 1.2.6 2.4.8 3.7s.1 2.6.2 3.8l1.3 1.3v6.9h.8l1 .2.9.2.6.2a3.8 3.8 0 0 0 .1.8 4.4 4.4 0 0 1-.2 1 2.7 2.7 0 0 1-.3 1.2l-.6.9c-.2.3-.5.3-.9.3h-5c-.2 0-.5-.5-.9-.8l-1.5-.9-1.5-.7c-.5-.3-.8-.8-1.1-.8h-5.9a5 5 0 0 1 .6-2.9 3.9 3.9 0 0 1 1.6-1.5 6.6 6.6 0 0 1 2-.6l2.1-.3 1.5-.6a1.4 1.4 0 0 0 .7-1.4v-.3a.4.4 0 0 1-.1-.3l-.8-1.7-1.2-2.3-1.5-2.4a6.5 6.5 0 0 0-1.5-1.7 3.6 3.6 0 0 0-1.3-.8l-1.8-.9-1.6-1.1c-.6-.3-.9-.6-1-1s-.6-1.8-.9-2.8a17 17 0 0 0-1-3.2 8.5 8.5 0 0 0-1.7-2.5 4.1 4.1 0 0 0-2.8-1 23.2 23.2 0 0 0-5.8.8 21.8 21.8 0 0 0-5.5 2.2 20.4 20.4 0 0 0-4.8 3.3 19.7 19.7 0 0 0-3.8 4.4c-.1.2-.2.2-.4.2h-.1c-.1 0-.1-.1-.1-.2s-.2-.1-.2-.3-.1-.4-.2-.6a1.4 1.4 0 0 0-.2-.6.4.4 0 0 0-.1-.3h-.3a1.4 1.4 0 0 0-1 .5 4.4 4.4 0 0 0-.8 1.1l-.8 1.3-.9 1a11.6 11.6 0 0 1-.6-1.6c0-.5-.1-1-.1-1.6a12.6 12.6 0 0 1 .4-2.8l.9-2.7c.3-.9.6-1.5.9-2.5a23.2 23.2 0 0 0 .3-2.7h-4.6c0-1.6.2-1.7.6-2.3a7.1 7.1 0 0 1 1.5-1.5 13.3 13.3 0 0 1 2.1-.9l2-.2a13.7 13.7 0 0 1 2.9.2l2.9.4 2.8.5h5a2.3 2.3 0 0 0-1.6-1.3l-2.5-.5-2.6-.2c-.8 0-1.5.2-2.1-.2l-3.7-2.1h-.3a16 16 0 0 0-3.1 0 15.1 15.1 0 0 1-3 .2 6.5 6.5 0 0 1-2.9-.7l-2.6-1.3a14.9 14.9 0 0 0-2.5-1.3 4.8 4.8 0 0 0-2.8-.6v5.8h1.6a2.5 2.5 0 0 0 .9-.4l.9-.5c.3-.2.3-.4.8-.6h.6v2.6l2-.6c0 .1.2.2.2.5s.1.3.1.4a5.3 5.3 0 0 1-1.3 3.8 21.2 21.2 0 0 1-3.1 2.8 20.1 20.1 0 0 0-4.5-1.2l-4.6-.7v-7.5l-1.7.5-1.9 1a16 16 0 0 0-1.9 1.1c-.4.4-.9.8-.9 1.2v6.6a16.5 16.5 0 0 0 2.9-.2l1.7-.6 1.2-.6a2.7 2.7 0 0 1 1.2-.3h.4c0 .1.1.3.2.7l.5 1.2.3 1.3a1.8 1.8 0 0 1 .2.9 3.9 3.9 0 0 1-.4 1.8 5.8 5.8 0 0 1-2.5 3.1 4.1 4.1 0 0 1-1.8.5h-1l-2.8-.5a22.9 22.9 0 0 1-3.6-.7 12.5 12.5 0 0 1-3.1-1.2 2.4 2.4 0 0 1-1.4-2v-11.5l.9-.8 1.8-1.5 2.3-2.1A27.3 27.3 0 0 0 74 140a18.4 18.4 0 0 0 1.7-2.5 5 5 0 0 0 .7-2.5 4 4 0 0 0-1.1-2.7 13.5 13.5 0 0 0-2.7-2 25.8 25.8 0 0 0-3.1-1.3l-2.5-.9-1.3-8.8a13.8 13.8 0 0 0-.6-2.6 10.8 10.8 0 0 0-1-2.7 8.5 8.5 0 0 0-1.7-2 3.9 3.9 0 0 0-2.6-.9 12.3 12.3 0 0 0-3.5.5 16.6 16.6 0 0 0-3.1 1.4l-1.6 1-2.5 1.5-2.8 1.7-2.9 1.6-2.4 1.6c-.8.5-1.3 1.1-1.6 1.1h-1l-1.7-.2-2-.4c-.6-.1-.8-.4-1.3-.7s-.3-.8-.3-1.3v-1.8c0-.6-.2-.9 0-.9h1.5v-.4c.1-.2.1-.5.2-.8a2.2 2.2 0 0 0 .1-.8 1.1 1.1 0 0 0 .1-.5l-.8-.8-.9-.5a1.2 1.2 0 0 1-.6-.6 1.7 1.7 0 0 1-.3-1.2 5.2 5.2 0 0 1 .2-1.1 4.1 4.1 0 0 1 .7-1.1c.3-.4.2-.7.6-.9l.8-.3v.7c0 .5.4 1 .5 1.5a1.4 1.4 0 0 0 1.2.7 1.6 1.6 0 0 0 1-.5 5.2 5.2 0 0 0 1-1.1c.2-.4.4-1.1.6-1.6s.2.3.2-1.3H27.4a1.5 1.5 0 0 1-.8-.5 3.3 3.3 0 0 1-1-.6 3.6 3.6 0 0 1-.9-.8 1.3 1.3 0 0 1-.4-1 4.5 4.5 0 0 1 1-3 6.8 6.8 0 0 1 2.6-1.8l3-1a15.8 15.8 0 0 0 2.8-.8l2.1-.9 3.3-1.5 3.2-1.5a8.8 8.8 0 0 1 2.1-1h13.2a7.8 7.8 0 0 1 3.7.9 14.2 14.2 0 0 1 3 2.5 19.1 19.1 0 0 1 2.4 3.2c.8 1.1 1.5 2.2 2.3 3.2a12.8 12.8 0 0 0 2.2 2.4 3.3 3.3 0 0 0 2.4 1 .7.7 0 0 0 .7-.4.9.9 0 0 1 .8-.4 4 4 0 0 1 1.5.3l1.5.7 1.4.7a4 4 0 0 0 1.5.3l4-.2 4-.4 3.9-.5 4-.2a51.8 51.8 0 0 1 7 .4 30.3 30.3 0 0 1 7 1.5 49.4 49.4 0 0 1 4.9 1.9l4.9 2.1a50.8 50.8 0 0 0 5.1 1.7 18.1 18.1 0 0 0 5.2.7h2.5L146 110c4.1-.9 8.2-1.6 12.3-2.3s8.3-1.1 12.5-1.5 8.4-.5 12.7-.5h8.5a48.4 48.4 0 0 1 4.9.9l35.2 7h11.3c-.8 0-1.8 1-3.1 1.3a12.5 12.5 0 0 1-3.9.1z"/></svg>